<svg xmlns="http://www.w3.org/2000/svg" xmlns:xlink="http://www.w3.org/1999/xlink" width="60" height="60" viewBox="0 0 60 60"><defs><style>.a,.c{fill:#f8c422;}.a{stroke:#707070;}.b{clip-path:url(#a);}</style><clipPath id="a"><rect class="a" width="60" height="60"/></clipPath></defs><g class="b"><g transform="translate(0 0)"><circle class="c" cx="2.508" cy="2.508" r="2.508" transform="translate(19.519 22.396)"/><circle class="c" cx="2.508" cy="2.508" r="2.508" transform="translate(35.453 32.576)"/><path class="c" d="M58.64,33.313l-.91-1.242a3.914,3.914,0,0,1-.037-4.561l.885-1.254a3.913,3.913,0,0,0-1.352-5.7l-1.352-.725a3.9,3.9,0,0,1-2-4.094l.258-1.512a3.905,3.905,0,0,0-3.688-4.549L48.9,9.61a3.919,3.919,0,0,1-3.59-2.815l-.43-1.475a3.9,3.9,0,0,0-5.3-2.5l-1.414.6a3.9,3.9,0,0,1-4.451-.984L32.7,1.3a3.9,3.9,0,0,0-5.852.049L25.838,2.5A3.909,3.909,0,0,1,21.4,3.549l-1.426-.59A3.914,3.914,0,0,0,14.712,5.54l-.406,1.488a3.882,3.882,0,0,1-3.541,2.865l-1.537.086a3.9,3.9,0,0,0-3.615,4.61L5.9,16.1A3.9,3.9,0,0,1,3.954,20.22l-1.34.75A3.9,3.9,0,0,0,1.36,26.687l.91,1.242a3.914,3.914,0,0,1,.037,4.561l-.885,1.254a3.913,3.913,0,0,0,1.352,5.7l1.352.725a3.9,3.9,0,0,1,2,4.094L5.872,45.78a3.905,3.905,0,0,0,3.688,4.549l1.537.061a3.919,3.919,0,0,1,3.59,2.815l.43,1.475a3.9,3.9,0,0,0,5.3,2.5l1.414-.6a3.9,3.9,0,0,1,4.451.984L27.3,58.7a3.9,3.9,0,0,0,5.852-.049L34.162,57.5A3.909,3.909,0,0,1,38.6,56.451l1.426.59a3.914,3.914,0,0,0,5.262-2.582l.406-1.488a3.882,3.882,0,0,1,3.541-2.865l1.537-.086a3.9,3.9,0,0,0,3.615-4.61L54.1,43.9a3.9,3.9,0,0,1,1.943-4.119l1.34-.75A3.9,3.9,0,0,0,58.64,33.313ZM15.966,24.9a6.049,6.049,0,1,1,6.049,6.049A6.045,6.045,0,0,1,15.966,24.9Zm7.217,15.6a1.479,1.479,0,0,1-2.078.2h0a1.479,1.479,0,0,1-.2-2.078L36.78,19.507a1.476,1.476,0,1,1,2.274,1.881Zm14.778.627a6.049,6.049,0,1,1,6.049-6.049A6.045,6.045,0,0,1,37.961,41.133Z"/></g></g></svg>