<svg xmlns="http://www.w3.org/2000/svg" xmlns:xlink="http://www.w3.org/1999/xlink" width="60" height="60" viewBox="0 0 60 60"><defs><style>.a{fill:#fff;stroke:#707070;}.b{clip-path:url(#a);}.c{fill:#f8c422;}</style><clipPath id="a"><rect class="a" width="60" height="60"/></clipPath></defs><g class="b"><g transform="translate(0 1.25)"><circle class="c" cx="5" cy="5" r="5" transform="translate(25 22.5)"/><path class="c" d="M50,42.5v-30H10v30ZM17.5,25h2.817a9.946,9.946,0,0,1,1.072-2.576l-2-2,3.536-3.536,2,2A9.946,9.946,0,0,1,27.5,17.817V15h5v2.817a9.946,9.946,0,0,1,2.576,1.072l2-2,3.536,3.536-2,2A9.946,9.946,0,0,1,39.683,25H42.5v5H39.683a9.946,9.946,0,0,1-1.072,2.576l2,2-3.536,3.536-2-2A9.946,9.946,0,0,1,32.5,37.183V40h-5V37.183a9.946,9.946,0,0,1-2.576-1.072l-2,2-3.536-3.536,2-2A9.945,9.945,0,0,1,20.317,30H17.5Z"/><path class="c" d="M7.5,10h45V42.5H55V10a2.5,2.5,0,0,0-2.5-2.5H7.5A2.5,2.5,0,0,0,5,10V42.5H7.5Z"/><path class="c" d="M0,45H60v2.5A2.5,2.5,0,0,1,57.5,50H2.5A2.5,2.5,0,0,1,0,47.5Z"/></g></g></svg>