<svg xmlns="http://www.w3.org/2000/svg" xmlns:xlink="http://www.w3.org/1999/xlink" width="60" height="60" viewBox="0 0 60 60"><defs><style>.a,.c{fill:#f8c422;}.a{stroke:#707070;}.b{clip-path:url(#a);}</style><clipPath id="a"><rect class="a" width="60" height="60"/></clipPath></defs><g class="b"><g transform="translate(0 0)"><path class="c" d="M59.634,24.115l-5-5a1.249,1.249,0,0,0-.885-.365H52.5V17.5a1.259,1.259,0,0,0-.365-.885l-10-10A15.739,15.739,0,0,0,30,1.25c-6.765,0-9.867,3.1-12.135,5.365A1.251,1.251,0,0,0,18.75,8.75C28.832,8.75,30,13.03,30,16.25A8.651,8.651,0,0,1,27.517,22l8.167,8.167c2.21-1.495,5.35-3.26,6.815-3.13V28.75a1.259,1.259,0,0,0,.365.885l6.25,6.25A1.259,1.259,0,0,0,50,36.25h.043a1.233,1.233,0,0,0,.9-.425l8.75-10A1.253,1.253,0,0,0,59.634,24.115Z"/><path class="c" d="M1.89,47.592a6.5,6.5,0,1,0,9.332,9.047l22.57-24.827-8.06-8.062Z"/></g></g></svg>