<svg xmlns="http://www.w3.org/2000/svg" xmlns:xlink="http://www.w3.org/1999/xlink" width="37" height="37" viewBox="0 0 37 37"><defs><style>.a{fill:#f8c422;}.b{clip-path:url(#a);}</style><clipPath id="a"><rect class="a" width="37" height="37" transform="translate(197 1565)"/></clipPath></defs><g class="b" transform="translate(-197 -1565)"><g transform="translate(198.609 1565)"><path class="a" d="M19.3,8.044H9.652v3.218H19.3ZM24.13,12.87H9.652v1.608H24.13Zm0,3.218H9.652V17.7H24.13ZM30.566,17.7V0H3.218V17.749L0,16.088V37H33.782V16.1l-3.218,1.6ZM6.436,3.218H27.348v15.94L24.13,20.882V19.3H9.652v1.608H24.073l-7.222,3.874L6.434,19.409V3.218ZM3.218,33.782V21.128L26.787,33.782Zm27.348-1.689L20.31,26.612,30.566,21.13Z"/></g></g></svg>