<svg xmlns="http://www.w3.org/2000/svg" xmlns:xlink="http://www.w3.org/1999/xlink" width="60" height="60" viewBox="0 0 60 60"><defs><style>.a{fill:#fff;stroke:#707070;}.b{clip-path:url(#a);}.c{fill:#f8c422;}</style><clipPath id="a"><rect class="a" width="60" height="60"/></clipPath></defs><g class="b"><path class="c" d="M12.173,8.622,10.9,8.987V24.141H30.82V8.987l-1.275-.364A31.587,31.587,0,0,0,12.173,8.622Zm15.131,12H14.414V11.671a28.064,28.064,0,0,1,12.891,0Zm0,0"/><path class="c" d="M22.491,33l-3.264-1.306L15.216,41.719H21.31l-2.082,5.207,3.264,1.306L26.5,38.2H20.409Zm0,0"/><path class="c" d="M58.242,5.859V0H54.727V5.859H50.039V0H46.523V5.859H44.766v6.563a7.629,7.629,0,0,0,5.859,7.41V44.121a2.285,2.285,0,0,1-4.57,0V30.645a5.808,5.808,0,0,0-5.8-5.8h-.117a5.764,5.764,0,0,0-2.285.47V5.273A5.279,5.279,0,0,0,32.578,0H9.141A5.279,5.279,0,0,0,3.867,5.273V56.484H0V60H41.719V56.484H37.852V30.645a2.288,2.288,0,0,1,2.285-2.285h.117a2.288,2.288,0,0,1,2.285,2.285V44.121a5.8,5.8,0,0,0,11.6,0V19.832A7.629,7.629,0,0,0,60,12.422V5.859ZM34.336,56.484H7.383V5.273A1.76,1.76,0,0,1,9.141,3.516H32.578a1.76,1.76,0,0,1,1.758,1.758ZM56.484,12.422a4.1,4.1,0,0,1-8.2,0V9.375h8.2Zm0,0"/></g></svg>