<svg xmlns="http://www.w3.org/2000/svg" xmlns:xlink="http://www.w3.org/1999/xlink" width="37" height="37" viewBox="0 0 37 37"><defs><style>.a{fill:#f8c422;}.b{clip-path:url(#a);}</style><clipPath id="a"><rect class="a" width="37" height="37" transform="translate(197 1468)"/></clipPath></defs><g class="b" transform="translate(-197 -1468)"><g transform="translate(203.938 1468)"><path class="a" d="M11.563,0A11.563,11.563,0,0,0,0,11.563C0,23.125,11.563,37,11.563,37S23.125,23.125,23.125,11.563A11.563,11.563,0,0,0,11.563,0Zm0,18.645a7.082,7.082,0,1,1,7.082-7.082A7.082,7.082,0,0,1,11.563,18.645Zm-4.48-7.082a4.48,4.48,0,1,1,4.48,4.48,4.48,4.48,0,0,1-4.48-4.48Z"/></g></g></svg>