<svg xmlns="http://www.w3.org/2000/svg" xmlns:xlink="http://www.w3.org/1999/xlink" width="37" height="37" viewBox="0 0 37 37"><defs><style>.a{fill:#f8c422;}.b{clip-path:url(#a);}</style><clipPath id="a"><rect class="a" width="37" height="37" transform="translate(197 1671)"/></clipPath></defs><g class="b" transform="translate(-197 -1671)"><g transform="translate(190.833 1664.833)"><path class="a" d="M41.111,31.861a23.448,23.448,0,0,1-7.338-1.172,2.062,2.062,0,0,0-2.086.5l-4.522,4.533A31.009,31.009,0,0,1,13.618,22.19l4.522-4.532a2.062,2.062,0,0,0,.5-2.086,23.512,23.512,0,0,1-1.172-7.349,2.048,2.048,0,0,0-2.056-2.056H8.222A2.048,2.048,0,0,0,6.167,8.222,34.941,34.941,0,0,0,41.111,43.167a2.048,2.048,0,0,0,2.056-2.056V33.917A2.048,2.048,0,0,0,41.111,31.861Zm-2.056-7.194h4.111a18.5,18.5,0,0,0-18.5-18.5v4.111A14.392,14.392,0,0,1,39.056,24.667Zm-8.222,0h4.111A10.282,10.282,0,0,0,24.667,14.389V18.5A6.172,6.172,0,0,1,30.833,24.667Z"/></g></g></svg>