<svg xmlns="http://www.w3.org/2000/svg" xmlns:xlink="http://www.w3.org/1999/xlink" width="60" height="60" viewBox="0 0 60 60"><defs><style>.a{fill:#fff;stroke:#707070;}.b{clip-path:url(#a);}.c{fill:#f8c422;}</style><clipPath id="a"><rect class="a" width="60" height="60" transform="translate(197 1899)"/></clipPath></defs><g class="b" transform="translate(-197 -1899)"><g transform="translate(197 1899)"><path class="c" d="M30,4.725a4.427,4.427,0,1,0,4.427,4.427A4.432,4.432,0,0,0,30,4.725Zm0,7.088a2.66,2.66,0,1,1,2.661-2.66A2.664,2.664,0,0,1,30,11.813Z"/><path class="c" d="M30,0a.883.883,0,0,0-.883.883V2.065a.883.883,0,1,0,1.767,0V.883A.883.883,0,0,0,30,0Z"/><path class="c" d="M25.613,3.516l-.835-.835a.884.884,0,1,0-1.249,1.25l.835.835a.884.884,0,0,0,1.249-1.25Z"/><path class="c" d="M22.912,8.269H21.731a.883.883,0,0,0,0,1.767h1.181a.883.883,0,0,0,0-1.767Z"/><path class="c" d="M25.613,13.539a.884.884,0,0,0-1.25,0l-.835.835a.884.884,0,1,0,1.25,1.249l.835-.835A.884.884,0,0,0,25.613,13.539Z"/><path class="c" d="M30,15.357a.883.883,0,0,0-.883.883v1.181a.883.883,0,0,0,1.767,0V16.24A.883.883,0,0,0,30,15.357Z"/><path class="c" d="M36.472,14.375l-.835-.835a.884.884,0,0,0-1.25,1.249l.835.835a.884.884,0,0,0,1.25-1.249Z"/><path class="c" d="M38.269,8.269H37.088a.883.883,0,0,0,0,1.767h1.181a.883.883,0,1,0,0-1.767Z"/><path class="c" d="M36.472,2.681a.884.884,0,0,0-1.249,0l-.835.835a.884.884,0,1,0,1.25,1.25l.835-.835A.884.884,0,0,0,36.472,2.681Z"/><path class="c" d="M54.507,45.256c0-.015,0-.031,0-.046a.843.843,0,0,0-.014-.092v0l-1.573-7.474,0-.008L51.342,30.16l0-.008-1.575-7.481a.883.883,0,0,0-.865-.7H11.1a.884.884,0,0,0-.865.7L8.66,30.152l0,.009L7.085,37.635v.006L5.51,45.115a.9.9,0,0,0-.015.1c0,.007,0,.015,0,.023s0,.042,0,.063v3.544a.883.883,0,0,0,.883.883h20.97v4.964H20.549a.883.883,0,0,0-.883.883v2.661H11.1A.883.883,0,1,0,11.1,60H48.9a.883.883,0,0,0,0-1.767H40.334V55.572a.883.883,0,0,0-.883-.883H32.656V49.725h20.97a.883.883,0,0,0,.883-.883V45.314s0,0,0,0V45.3C54.509,45.284,54.508,45.27,54.507,45.256Zm-1.97-.842H38.7L38.3,38.7H51.334Zm-2.778-13.2,1.2,5.714H38.174l-.4-5.714Zm-1.575-7.481,1.2,5.714H37.649l-.4-5.714Zm-23.66,0H35.476l.4,5.714H24.122ZM24,31.218H36l.4,5.714H23.6ZM23.474,38.7H36.527l.4,5.714H23.073ZM11.816,23.737H22.752l-.4,5.714H10.613Zm-1.575,7.481H22.227l-.4,5.714H9.038ZM38.567,56.456v1.777H21.433V56.456H38.567Zm-9.455-1.767V49.726h1.777v4.964Zm2.671-6.731H7.258V46.181h4.209a.883.883,0,1,0,0-1.767h-4l1.2-5.714H21.7l-.4,5.714H15.288a.883.883,0,1,0,0,1.767H52.742v1.777H31.782Z"/></g></g></svg>