<svg xmlns="http://www.w3.org/2000/svg" xmlns:xlink="http://www.w3.org/1999/xlink" width="60" height="60" viewBox="0 0 60 60"><defs><style>.a,.c{fill:#f8c422;}.a{stroke:#707070;}.b{clip-path:url(#a);}</style><clipPath id="a"><rect class="a" width="60" height="60"/></clipPath></defs><g class="b"><g transform="translate(0 0)"><path class="c" d="M29.13,46.588a7.776,7.776,0,0,0-11.621-2.1l-6.2-10.6a7.772,7.772,0,0,0,3.87-11.157l-.666-1.137A7.77,7.77,0,0,0,.045,25.125c-.4,4.7,1.895,11.963,5.987,18.961s9.3,12.558,13.589,14.516a7.846,7.846,0,0,0,3.476.818,7.771,7.771,0,0,0,6.7-11.693Z"/><path class="c" d="M60,26.313A25.771,25.771,0,0,0,34.23.58h-.038A25.807,25.807,0,0,0,11.383,14.413a.947.947,0,0,0,.4,1.278l1.679.878a.947.947,0,0,0,1.279-.4A22.018,22.018,0,0,1,34.2,4.369h.034a21.982,21.982,0,0,1,4.514,43.5L41.1,44.391a.947.947,0,0,0-.253-1.315l-1.569-1.062a.947.947,0,0,0-1.315.253l-5.386,7.955a.947.947,0,0,0,.253,1.316l7.955,5.386A.947.947,0,0,0,42.1,56.67L43.158,55.1a.947.947,0,0,0-.253-1.315l-3.3-2.231A25.773,25.773,0,0,0,60,26.313Z"/><path class="c" d="M29.7,24.763l-6.719,8.366a.947.947,0,0,0,.739,1.54H35.6a.947.947,0,0,0,.947-.947V31.828a.947.947,0,0,0-.947-.947H29.642l2.974-3.7c3.851-4.537,3.689-7.636,2.875-9.438a5.624,5.624,0,0,0-5.18-3.129,6.9,6.9,0,0,0-6.327,3.753.947.947,0,0,0,.43,1.269l1.7.838a.947.947,0,0,0,1.268-.43A3.146,3.146,0,0,1,30.208,18.4h.038a1.89,1.89,0,0,1,1.793.9c.386.855-.021,2.734-2.326,5.443Z"/><path class="c" d="M46.633,15.082H45.49a.947.947,0,0,0-.749.367L34.324,28.883a.947.947,0,0,0,.749,1.528h8.719v3.276a.947.947,0,0,0,.947.947h1.894a.947.947,0,0,0,.947-.947V30.411h.888a.947.947,0,0,0,.947-.947V27.569a.947.947,0,0,0-.947-.947h-.888V16.03A.947.947,0,0,0,46.633,15.082Zm-2.842,7.906v3.633H40.755Z"/></g></g></svg>